<svg xmlns="http://www.w3.org/2000/svg" viewBox="0 0 16 16" id="Calender">
  <path d="M4.334 2A.334.334 0 0 0 4 2.334V3H2.5a.5.5 0 0 0-.502.5v10a.5.5 0 0 0 .502.5h10a.5.5 0 0 0 .5-.5v-10a.5.5 0 0 0-.5-.5H11v-.666A.334.334 0 0 0 10.666 2h-.332a.334.334 0 0 0-.334.334V3H5v-.666A.334.334 0 0 0 4.666 2h-.332zM3 4h9v1H3V4zm0 2h9v7H3V6zm1 1v1h1V7H4zm2 0v1h1V7H6zm2 0v1h1V7H8zm2 0v1h1V7h-1zM4 9v1h1V9H4zm2 0v1h1V9H6zm2 0v1h1V9H8zm2 0v1h1V9h-1zm-6 2v1h1v-1H4zm2 0v1h1v-1H6zm2 0v1h1v-1H8z" color="#000" font-family="sans-serif" font-weight="400" overflow="visible" style="line-height:normal;text-indent:0;text-align:start;text-decoration-line:none;text-decoration-style:solid;text-decoration-color:#000;text-transform:none;block-progression:tb;isolation:auto;mix-blend-mode:normal;marker:none" fill="#f8f7f7" class="color000000 svgShape"></path>
</svg>
